<svg id="圖層_1" data-name="圖層 1" xmlns="http://www.w3.org/2000/svg" viewBox="0 0 639.8 178.41"><defs><style>.cls-1{fill:#fff;}</style></defs><path class="cls-1" d="M208.14,114.3A57.29,57.29,0,0,1,158.24,143C127,143,102.13,118.74,102.13,88S127,33.09,158.24,33.09a56.91,56.91,0,0,1,47.38,24.79c-13.22-28.7-43.83-50-79.17-56.1l-.14,0c-3-.53-6.12-.92-9.21-1.21L116,.44c-1.18-.11-2.37-.17-3.56-.23C110.74.12,109,0,107.29,0c-.44,0-.87,0-1.31,0C50,.14,0,39.67,0,89.21A74.82,74.82,0,0,0,11.79,130L53.14,35.45h11.8l44.3,105.16H88.56l-8.27-20.09H36L26,147.1c20,19.46,48.89,31.26,80.12,31.31l1.06,0c1.93,0,3.85-.11,5.76-.21C156.38,175.59,195.36,149.87,208.14,114.3Z"/><path class="cls-1" d="M158.24,52c-18.89,0-36,15.37-36,36.05,0,47.25,72.05,47.25,72.05,0A36.17,36.17,0,0,0,158.24,52Z"/><polygon class="cls-1" points="58.45 65.58 43.09 103.38 73.8 103.38 58.45 65.58"/><path class="cls-1" d="M461.46,144.06H442V83.21c0-8.27-9.43-8.86-9.43-8.86h-8.28a6.1,6.1,0,0,1-2.36.59C410.09,77.31,406.55,86.76,406,97.4l.59,46.66H387.06V83.81c0-8.87-9.44-9.46-9.44-9.46h-8.27a6.1,6.1,0,0,1-2.36.59C355.18,77.31,351,86.76,351.63,97.4L351,144.06H332.16V55.45h19.47v7.68c5.32-6.5,13.59-7.68,17.72-7.68h7.07c8.28,0,15.95,2.36,23.64,9.46,8.26-7.1,15.35-9.46,24.2-9.46h7.08c17.72,0,30.12,10.63,30.12,29Z"/><path class="cls-1" d="M609.67,55.45H580.75V37.14l-19.5-11.23V144.06h19.5V74.35h29.52a17.23,17.23,0,0,1,5.31,1.18c2.95,1.78,5.31,4.14,4.73,9.46v59.07H639.8V84.4c0-18.32-12.41-28.95-30.13-28.95Z"/><path class="cls-1" d="M534.68,36.54,516.37,25.31h-.59v49h0v38.41c0,15.94,6.51,27.76,20.67,30.71a26.78,26.78,0,0,0,4.73.59h4.13v-18.9H543c-8.85,0-8.27-10-8.27-10V74.35h10.63V55.45H534.68Z"/><path class="cls-1" d="M478.6,144.06h19.48V55.45H478.6Zm1.17-118.75H478.6L479.19,46h18.29V36.54Z"/><path class="cls-1" d="M237.08,111.57c8.27,8.87,20.67,15.36,33.65,15.36,16,0,27.17-5.91,27.17-17.13,0-25.4-73.22-.59-73.22-47.27,0-20.08,21.26-34.27,47.24-34.27,18.89,0,34.25,5.92,45.47,17.14L301.45,59.58C291.4,49.54,282,46,270.73,46c-17.7,0-24.21,8.27-24.21,15.36,0,25.41,73.82,0,73.82,47.26,0,24.23-24.22,38.4-50.19,38.4a66.86,66.86,0,0,1-49-21.26Z"/></svg>